<svg width="1280" height="720" viewBox="0 0 1280 720" fill="none" xmlns="http://www.w3.org/2000/svg">
  <defs>
    <linearGradient id="bg-identity" x1="0" y1="0" x2="1280" y2="720" gradientUnits="userSpaceOnUse">
      <stop offset="0" stop-color="#e0f2fe"/>
      <stop offset="0.55" stop-color="#f5f3ff"/>
      <stop offset="1" stop-color="#dcfce7"/>
    </linearGradient>
    <linearGradient id="ring" x1="0" y1="0" x2="1" y2="1">
      <stop offset="0" stop-color="#2563eb"/>
      <stop offset="1" stop-color="#22c55e"/>
    </linearGradient>
  </defs>
  <rect width="1280" height="720" fill="url(#bg-identity)"/>
  <path d="M0 560C180 520 320 600 560 580C820 556 1020 500 1280 520V720H0V560Z" fill="#bbf7d0"/>
  <path d="M0 610C220 580 420 640 640 628C880 612 1060 560 1280 580V720H0V610Z" fill="#93c5fd"/>
  <g transform="translate(170 140)">
    <circle cx="200" cy="200" r="150" stroke="url(#ring)" stroke-width="14" fill="#ffffff" opacity="0.95"/>
    <circle cx="200" cy="200" r="96" fill="#111827"/>
    <circle cx="200" cy="170" r="38" fill="#f8fafc"/>
    <rect x="150" y="220" width="100" height="60" rx="30" fill="#f8fafc"/>
  </g>
  <g stroke="#0ea5e9" stroke-width="3" opacity="0.6">
    <line x1="720" y1="160" x2="860" y2="220"/>
    <line x1="860" y1="220" x2="1040" y2="180"/>
    <line x1="780" y1="320" x2="940" y2="300"/>
    <line x1="940" y1="300" x2="1100" y2="360"/>
  </g>
  <g fill="#0f172a">
    <circle cx="720" cy="160" r="6"/>
    <circle cx="860" cy="220" r="6"/>
    <circle cx="1040" cy="180" r="6"/>
    <circle cx="780" cy="320" r="6"/>
    <circle cx="940" cy="300" r="6"/>
    <circle cx="1100" cy="360" r="6"/>
  </g>
</svg>
